<svg width="960" height="760" viewBox="0 0 960 760" fill="none" xmlns="http://www.w3.org/2000/svg" role="img" aria-labelledby="title desc">
  <title id="title">Campaign planning board</title>
  <desc id="desc">A minimal editorial illustration of marketing cards, charts, and campaign notes.</desc>
  <rect x="64" y="62" width="690" height="564" fill="#F8F7F2" stroke="#161615" stroke-width="3"/>
  <rect x="108" y="112" width="256" height="166" fill="#FFFFFF" stroke="#161615" stroke-width="2"/>
  <rect x="134" y="143" width="92" height="13" fill="#C35B35"/>
  <rect x="134" y="178" width="174" height="12" fill="#161615" opacity=".22"/>
  <rect x="134" y="207" width="120" height="12" fill="#161615" opacity=".22"/>
  <rect x="134" y="236" width="190" height="12" fill="#6D7A3D"/>
  <rect x="410" y="112" width="296" height="166" fill="#235F7F" stroke="#161615" stroke-width="2"/>
  <path d="M454 229C490 170 528 202 558 154C588 106 632 132 664 130" stroke="#F8F7F2" stroke-width="7" stroke-linecap="square"/>
  <rect x="446" y="238" width="190" height="12" fill="#DFE56A"/>
  <rect x="108" y="324" width="206" height="214" fill="#DFE56A" stroke="#161615" stroke-width="2"/>
  <rect x="136" y="357" width="92" height="92" fill="#F8F7F2" stroke="#161615" stroke-width="2" transform="rotate(-8 136 357)"/>
  <rect x="138" y="475" width="130" height="12" fill="#161615"/>
  <rect x="138" y="503" width="84" height="12" fill="#161615" opacity=".32"/>
  <rect x="360" y="324" width="346" height="214" fill="#FFFFFF" stroke="#161615" stroke-width="2"/>
  <rect x="394" y="362" width="54" height="132" fill="#C35B35"/>
  <rect x="474" y="412" width="54" height="82" fill="#6D7A3D"/>
  <rect x="554" y="382" width="54" height="112" fill="#235F7F"/>
  <rect x="634" y="344" width="54" height="150" fill="#161615"/>
  <path d="M100 614H766" stroke="#161615" stroke-width="2"/>
  <rect x="720" y="254" width="164" height="164" fill="#F8F7F2" stroke="#161615" stroke-width="3" transform="rotate(9 720 254)"/>
  <path d="M746 342L785 309L811 354L852 286" stroke="#C35B35" stroke-width="8" stroke-linecap="square" stroke-linejoin="bevel"/>
  <rect x="767" y="383" width="68" height="10" fill="#161615" opacity=".42" transform="rotate(9 767 383)"/>
  <rect x="504" y="548" width="202" height="126" fill="#6D7A3D" stroke="#161615" stroke-width="2"/>
  <rect x="532" y="582" width="118" height="14" fill="#F8F7F2"/>
  <rect x="532" y="616" width="72" height="14" fill="#F8F7F2" opacity=".72"/>
  <circle cx="728" cy="114" r="58" fill="#DFE56A" stroke="#161615" stroke-width="3"/>
  <path d="M708 114H748M728 94V134" stroke="#161615" stroke-width="5"/>
  <path d="M53 538L18 584L73 605" stroke="#235F7F" stroke-width="12" stroke-linejoin="bevel"/>
  <path d="M780 594L898 650" stroke="#161615" stroke-width="3"/>
  <path d="M808 556L926 612" stroke="#161615" stroke-width="3"/>
  <rect x="802" y="600" width="86" height="86" fill="#C35B35" stroke="#161615" stroke-width="3" transform="rotate(-12 802 600)"/>
</svg>
